<svg xmlns="http://www.w3.org/2000/svg" viewBox="0 0 1200 600" width="1200" height="600" role="img" aria-label="Vabbit: Sleek. Fast. Secure. The WireGuard rabbit.">
<defs><radialGradient id="bgb" cx="0.5" cy="0.35" r="0.75"><stop offset="0" stop-color="#123a66"/><stop offset="1" stop-color="#06122a"/></radialGradient></defs>
<rect width="1200" height="600" fill="url(#bgb)"/>
<g fill="none" stroke="#38bdf8" stroke-width="2" opacity="0.16"><path d="M41 40 H269 L292 63 H359"/><circle cx="359" cy="63" r="3" fill="#38bdf8"/><path d="M1159 40 H931 L908 63 H841"/><circle cx="841" cy="63" r="3" fill="#38bdf8"/><path d="M83 86 H256 L279 63 H346"/><circle cx="346" cy="63" r="3" fill="#38bdf8"/><path d="M1117 86 H944 L921 63 H854"/><circle cx="854" cy="63" r="3" fill="#38bdf8"/><path d="M105 132 H318 L341 109 H408"/><circle cx="408" cy="109" r="3" fill="#38bdf8"/><path d="M1095 132 H882 L859 109 H792"/><circle cx="792" cy="109" r="3" fill="#38bdf8"/><path d="M46 178 H324 L347 155 H414"/><circle cx="414" cy="155" r="3" fill="#38bdf8"/><path d="M1154 178 H876 L853 155 H786"/><circle cx="786" cy="155" r="3" fill="#38bdf8"/><path d="M116 224 H314 L337 201 H404"/><circle cx="404" cy="201" r="3" fill="#38bdf8"/><path d="M1084 224 H886 L863 201 H796"/><circle cx="796" cy="201" r="3" fill="#38bdf8"/><path d="M4 270 H261 L284 293 H351"/><circle cx="351" cy="293" r="3" fill="#38bdf8"/><path d="M1196 270 H939 L916 293 H849"/><circle cx="849" cy="293" r="3" fill="#38bdf8"/><path d="M53 316 H258 L281 293 H348"/><circle cx="348" cy="293" r="3" fill="#38bdf8"/><path d="M1147 316 H942 L919 293 H852"/><circle cx="852" cy="293" r="3" fill="#38bdf8"/><path d="M11 362 H320 L343 385 H410"/><circle cx="410" cy="385" r="3" fill="#38bdf8"/><path d="M1189 362 H880 L857 385 H790"/><circle cx="790" cy="385" r="3" fill="#38bdf8"/><path d="M7 408 H322 L345 385 H412"/><circle cx="412" cy="385" r="3" fill="#38bdf8"/><path d="M1193 408 H878 L855 385 H788"/><circle cx="788" cy="385" r="3" fill="#38bdf8"/><path d="M28 454 H330 L353 431 H420"/><circle cx="420" cy="431" r="3" fill="#38bdf8"/><path d="M1172 454 H870 L847 431 H780"/><circle cx="780" cy="431" r="3" fill="#38bdf8"/><path d="M73 500 H324 L347 523 H414"/><circle cx="414" cy="523" r="3" fill="#38bdf8"/><path d="M1127 500 H876 L853 523 H786"/><circle cx="786" cy="523" r="3" fill="#38bdf8"/><path d="M6 546 H278 L301 523 H368"/><circle cx="368" cy="523" r="3" fill="#38bdf8"/><path d="M1194 546 H922 L899 523 H832"/><circle cx="832" cy="523" r="3" fill="#38bdf8"/></g>
<svg x="350" y="40" width="500" height="300.0" viewBox="40 50 900 540">
  <defs>
    <linearGradient id="teal" gradientUnits="userSpaceOnUse" x1="300" y1="200" x2="800" y2="650">
      <stop offset="0" stop-color="#3fdca0"/><stop offset="1" stop-color="#14a38c"/>
    </linearGradient>
    <linearGradient id="ear" x1="0" y1="0" x2="1" y2="0.6">
      <stop offset="0" stop-color="#43dfa2"/><stop offset="1" stop-color="#22b49c"/>
    </linearGradient>
    <linearGradient id="earDark" x1="0" y1="0" x2="1" y2="0.6">
      <stop offset="0" stop-color="#1fae8c"/><stop offset="1" stop-color="#138a87"/>
    </linearGradient>
    <linearGradient id="head" x1="0" y1="0" x2="0.6" y2="1">
      <stop offset="0" stop-color="#3fdca0"/><stop offset="1" stop-color="#19a990"/>
    </linearGradient>
    <linearGradient id="chest" gradientUnits="userSpaceOnUse" x1="0" y1="370" x2="0" y2="520">
      <stop offset="0" stop-color="#1d6fe0" stop-opacity="0"/><stop offset="0.5" stop-color="#1d6fe0" stop-opacity="0.7"/><stop offset="1" stop-color="#2563eb"/>
    </linearGradient>
    <linearGradient id="blue" x1="0" y1="0" x2="1" y2="1">
      <stop offset="0" stop-color="#1e5fd6"/><stop offset="1" stop-color="#3b82f6"/>
    </linearGradient>
    <radialGradient id="knob" cx="0.4" cy="0.4" r="0.7">
      <stop offset="0" stop-color="#e0f7ff"/><stop offset="0.6" stop-color="#7dd3fc"/><stop offset="1" stop-color="#38bdf8"/>
    </radialGradient>
    <filter id="glow" x="-40%" y="-60%" width="180%" height="220%">
      <feGaussianBlur stdDeviation="10" result="b"/><feMerge><feMergeNode in="b"/><feMergeNode in="SourceGraphic"/></feMerge>
    </filter>
    <path id="bodyShape" d="M745 298 C 660 292, 560 290, 470 306 C 400 318, 344 346, 326 392 C 310 434, 332 476, 384 486 C 430 494, 470 482, 520 462 C 580 444, 640 440, 700 436 C 750 432, 784 410, 786 372 C 788 336, 772 306, 745 298 Z"/>
    <path id="headShape" d="M720 300 C 760 270, 820 275, 860 300 C 885 318, 905 340, 922 360 C 900 378, 870 392, 840 398 C 800 404, 760 410, 725 412 Z"/>
    <clipPath id="bodyClip"><use href="#bodyShape"/><use href="#headShape"/></clipPath>
  </defs>
  <g id="rabbit" stroke-linejoin="round">
    <path d="M470 478 C 494 524, 524 552, 566 572 C 614 552, 650 512, 672 456" fill="none" stroke="url(#blue)" stroke-width="20"/>
    <path d="M452 312 L452 262 L560 242" fill="none" stroke="#2fc79a" stroke-width="16"/>
    <circle cx="322" cy="372" r="30" fill="#1aa38a"/>
    <path d="M352 408 C 324 452, 292 488, 240 506 L 84 552 C 76 562, 80 572, 92 574 L 262 548 C 340 532, 420 504, 482 470 Z" fill="url(#teal)" stroke="#0b1f3a" stroke-width="6" paint-order="stroke"/>
    <use href="#bodyShape" fill="url(#teal)" stroke="#0b1f3a" stroke-width="6" paint-order="stroke"/>
    <path d="M330 120 L 362 130 C 480 180, 610 240, 740 300 L 712 316 C 590 262, 460 210, 348 162 Z" fill="url(#earDark)" stroke="#0b1f3a" stroke-width="6" paint-order="stroke"/>
    <path d="M330 120 L 362 130 C 480 180, 610 240, 740 300 L 728 307 C 600 248, 470 192, 342 146 Z" fill="url(#ear)"/>
    <path d="M420 60 L 448 74 C 560 140, 680 220, 792 292 L 762 308 C 650 236, 540 160, 432 104 Z" fill="url(#ear)" stroke="#0b1f3a" stroke-width="6" paint-order="stroke"/>
    <use href="#headShape" fill="url(#teal)"/>
    <g clip-path="url(#bodyClip)">
      <path d="M600 300 L 960 300 L 960 560 L 520 520 Z" fill="url(#chest)"/>
      <path d="M350 352 C 322 386, 318 446, 362 484 L 392 488 C 350 448, 350 396, 380 360 Z" fill="#4be3a8" opacity="0.55"/>
      <path d="M380 360 C 350 396, 350 448, 392 488" fill="none" stroke="#0b1f3a" stroke-width="5" opacity="0.8"/>
    </g>
    <path d="M818 326 C 834 330, 852 338, 866 348 C 846 351, 830 344, 818 326 Z" fill="#0b1f3a"/>
    <path d="M720 430 C 790 436, 856 456, 918 490 L 906 504 C 850 480, 790 468, 724 462 Z" fill="url(#blue)"/>
  </g>
</svg>
<text x="600" y="455" text-anchor="middle" font-family="Montserrat, Inter, 'Segoe UI', Helvetica, Arial, sans-serif" font-size="110" font-weight="700" fill="#f8fafc">Vabbit</text>
<text x="600" y="512" text-anchor="middle" font-family="Montserrat, Inter, 'Segoe UI', Helvetica, Arial, sans-serif" font-size="28" font-weight="500" fill="#cbd5e1">Sleek. Fast. Secure. The WireGuard rabbit.</text>
</svg>
