<svg xmlns="http://www.w3.org/2000/svg" viewBox="0 0 720 180" width="720" height="180" role="img" aria-label="Vabbit">
<svg x="4" y="26" width="230" height="138.0" viewBox="40 50 900 540">
  <defs>
    <linearGradient id="teal" gradientUnits="userSpaceOnUse" x1="300" y1="200" x2="800" y2="650">
      <stop offset="0" stop-color="#3fdca0"/><stop offset="1" stop-color="#14a38c"/>
    </linearGradient>
    <linearGradient id="ear" x1="0" y1="0" x2="1" y2="0.6">
      <stop offset="0" stop-color="#43dfa2"/><stop offset="1" stop-color="#22b49c"/>
    </linearGradient>
    <linearGradient id="earDark" x1="0" y1="0" x2="1" y2="0.6">
      <stop offset="0" stop-color="#1fae8c"/><stop offset="1" stop-color="#138a87"/>
    </linearGradient>
    <linearGradient id="head" x1="0" y1="0" x2="0.6" y2="1">
      <stop offset="0" stop-color="#3fdca0"/><stop offset="1" stop-color="#19a990"/>
    </linearGradient>
    <linearGradient id="chest" gradientUnits="userSpaceOnUse" x1="0" y1="370" x2="0" y2="520">
      <stop offset="0" stop-color="#1d6fe0" stop-opacity="0"/><stop offset="0.5" stop-color="#1d6fe0" stop-opacity="0.7"/><stop offset="1" stop-color="#2563eb"/>
    </linearGradient>
    <linearGradient id="blue" x1="0" y1="0" x2="1" y2="1">
      <stop offset="0" stop-color="#1e5fd6"/><stop offset="1" stop-color="#3b82f6"/>
    </linearGradient>
    <radialGradient id="knob" cx="0.4" cy="0.4" r="0.7">
      <stop offset="0" stop-color="#e0f7ff"/><stop offset="0.6" stop-color="#7dd3fc"/><stop offset="1" stop-color="#38bdf8"/>
    </radialGradient>
    <filter id="glow" x="-40%" y="-60%" width="180%" height="220%">
      <feGaussianBlur stdDeviation="10" result="b"/><feMerge><feMergeNode in="b"/><feMergeNode in="SourceGraphic"/></feMerge>
    </filter>
    <path id="bodyShape" d="M745 298 C 660 292, 560 290, 470 306 C 400 318, 344 346, 326 392 C 310 434, 332 476, 384 486 C 430 494, 470 482, 520 462 C 580 444, 640 440, 700 436 C 750 432, 784 410, 786 372 C 788 336, 772 306, 745 298 Z"/>
    <path id="headShape" d="M720 300 C 760 270, 820 275, 860 300 C 885 318, 905 340, 922 360 C 900 378, 870 392, 840 398 C 800 404, 760 410, 725 412 Z"/>
    <clipPath id="bodyClip"><use href="#bodyShape"/><use href="#headShape"/></clipPath>
  </defs>
  <g id="rabbit" stroke-linejoin="round">
    <path d="M470 478 C 494 524, 524 552, 566 572 C 614 552, 650 512, 672 456" fill="none" stroke="url(#blue)" stroke-width="20"/>
    <path d="M452 312 L452 262 L560 242" fill="none" stroke="#2fc79a" stroke-width="16"/>
    <circle cx="322" cy="372" r="30" fill="#1aa38a"/>
    <path d="M352 408 C 324 452, 292 488, 240 506 L 84 552 C 76 562, 80 572, 92 574 L 262 548 C 340 532, 420 504, 482 470 Z" fill="url(#teal)" stroke="#0b1f3a" stroke-width="6" paint-order="stroke"/>
    <use href="#bodyShape" fill="url(#teal)" stroke="#0b1f3a" stroke-width="6" paint-order="stroke"/>
    <path d="M330 120 L 362 130 C 480 180, 610 240, 740 300 L 712 316 C 590 262, 460 210, 348 162 Z" fill="url(#earDark)" stroke="#0b1f3a" stroke-width="6" paint-order="stroke"/>
    <path d="M330 120 L 362 130 C 480 180, 610 240, 740 300 L 728 307 C 600 248, 470 192, 342 146 Z" fill="url(#ear)"/>
    <path d="M420 60 L 448 74 C 560 140, 680 220, 792 292 L 762 308 C 650 236, 540 160, 432 104 Z" fill="url(#ear)" stroke="#0b1f3a" stroke-width="6" paint-order="stroke"/>
    <use href="#headShape" fill="url(#teal)"/>
    <g clip-path="url(#bodyClip)">
      <path d="M600 300 L 960 300 L 960 560 L 520 520 Z" fill="url(#chest)"/>
      <path d="M350 352 C 322 386, 318 446, 362 484 L 392 488 C 350 448, 350 396, 380 360 Z" fill="#4be3a8" opacity="0.55"/>
      <path d="M380 360 C 350 396, 350 448, 392 488" fill="none" stroke="#0b1f3a" stroke-width="5" opacity="0.8"/>
    </g>
    <path d="M818 326 C 834 330, 852 338, 866 348 C 846 351, 830 344, 818 326 Z" fill="#0b1f3a"/>
    <path d="M720 430 C 790 436, 856 456, 918 490 L 906 504 C 850 480, 790 468, 724 462 Z" fill="url(#blue)"/>
  </g>
</svg>
<text x="250" y="104" font-family="Montserrat, Inter, 'Segoe UI', Helvetica, Arial, sans-serif" font-size="84" font-weight="700" letter-spacing="-1" fill="#0b1f3a">Vabbit</text>
<text x="254" y="142" font-family="Montserrat, Inter, 'Segoe UI', Helvetica, Arial, sans-serif" font-size="20" font-weight="500" fill="#0f766e">Sleek. Fast. Secure. The WireGuard rabbit.</text>
</svg>
